PathFileType	4	(X/Y/Z)	C:/Users/beibeiliu/ov580/test_trc/User1\sequence.9_training_dense_left.trc
DataRate	CameraRate	NumFrames	NumMarkers	Units	OrigDataRate	OrigDataStartFrame	OrigNumFrames
120	120	12	19	mm	120	197	314
Frame#	Time	ThumbCMC			ThumbMCP			ThumbIP			ThumbTip			IndexMCP			IndexPIP			IndexTip			MiddleMCP			MiddlePIP			MiddleTip			RingMCP			RingPIP			RingTip			PinkyMCP			PinkyPIP			PinkyTip			BackHand1			BackHand2			BackHand3	
		X0	Y0	Z0	X1	Y1	Z1	X2	Y2	Z2	X3	Y3	Z3	X4	Y4	Z4	X5	Y5	Z5	X6	Y6	Z6	X7	Y7	Z7	X8	Y8	Z8	X9	Y9	Z9	X10	Y10	Z10	X11	Y11	Z11	X12	Y12	Z12	X13	Y13	Z13	X14	Y14	Z14	X15	Y15	Z15	X16	Y16	Z16	X17	Y17	Z17	X18	Y18	Z18	
196	1.63333	-193.316	145.37	10.2084	-169.757	154.296	-0.976633	-150.356	162.708	-19.7242	-134.653	175.098	-31.8087	-170.739	109.638	-68.876	-158.743	93.6715	-84.9532	-145.011	74.3869	-102.915	-190.692	84.6536	-72.8405	-173.932	62.4716	-88.2415	-153.089	43.7729	-103.263	-205.698	62.779	-62.2674	-186.654	45.0288	-74.8714	-172.307	26.4941	-81.5706	-223.021	53.6315	-41.7534	-212.962	36.0854	-50.2077	-199.101	17.2715	-62.1423	-240.127	102.18	-24.5945	-252.98	117.698	3.34173	-219.049	136.594	-11.1773	
197	1.64167	-184.223	143.48	12.3285	-161.353	144.79	2.37366	-141.712	150.687	-19.1377	-124.456	162.257	-24.5044	-168.64	107.907	-71.2878	-158.485	91.3555	-90.5611	-148.759	76.4474	-106.293	-194.73	86.5503	-76.3377	-178.264	70.7486	-91.9962	-163.877	46.4133	-111.987	-210.868	69.0309	-66.9519	-197.542	50.8335	-80.7961	-188.651	29.0219	-91.2512	-230.843	58.5333	-47.1272	-224.079	40.5123	-55.7202	-217.61	24.7807	-71.8407	-237.239	108.762	-25.8803	-248.691	121.982	7.42071	-214.857	134.461	-12.2221	
198	1.65	-176.621	136.703	17.5709	-154.656	133.329	2.24278	-134.387	139.388	-12.5762	-116.135	148.325	-21.77	-169.632	107.219	-69.1113	-157.286	94.2655	-91.0676	-153.928	76.624	-112.175	-194.974	88.7702	-81.7416	-185.05	70.6472	-100.494	-172.843	51.01	-119.518	-219.355	75.2637	-70.2708	-210.831	54.6554	-88.9863	-200.946	38.8797	-102.007	-240.576	67.3107	-49.3656	-238.23	49.1703	-62.0214	-235.2	33.4845	-79.8021	-236.212	113.243	-27.9719	-242.589	126.289	5.98637	-209.106	136.507	-7.58914	
199	1.65833	-173.667	125.522	14.3547	-149.074	124.068	0.520291	-125.782	129.279	-15.5794	-109.82	133.05	-18.3526	-169.788	105.671	-73.9664	-161.245	94.0523	-93.8935	-154.788	80.4063	-117.042	-194.089	97.0335	-83.6162	-189.508	80.4798	-102.638	-184.554	60.3443	-125.526	-220.993	85.4649	-74.6038	-216.871	68.2789	-94.65	-214.199	49.1357	-113.895	-247.901	74.4066	-56.687	-247.285	63.5467	-68.6652	-250.717	47.1543	-87.5663	-229.009	118.786	-25.9627	-238.355	130.227	7.32524	-198.352	136.223	-9.4475	
200	1.66667	-168.082	119.316	14.9154	-144.229	115.66	2.19046	-120.713	118.842	-11.3356	-104.367	120.318	-18.8129	-168.796	107.157	-75.5661	-160.705	98.5615	-94.7157	-155.678	86.4835	-120.704	-199.313	104.9	-81.5181	-189.056	90.1825	-109.9	-191.595	71.5919	-132.957	-221.151	97.4706	-74.6654	-223.063	84.0572	-98.6217	-220.08	68.0384	-122.178	-248.392	89.5842	-56.2642	-254.531	77.6479	-73.9757	-261.557	65.6086	-97.8079	-229.115	122.706	-21.031	-235.095	131.879	10.398	-198.853	133.881	-3.13027	
201	1.675	-163.177	112.86	16.0591	-138.801	107.503	8.7327	-119.819	108.539	-7.2372	-101.049	108.234	-13.7378	-168.379	109.311	-72.3662	-161.362	102.282	-100.011	-158.919	94.5824	-121.269	-193.384	113.047	-82.6308	-190.871	101.225	-112.224	-192.759	89.5474	-137.985	-224.299	107.453	-78.8699	-225.323	98.1206	-104.796	-225.465	87.7543	-129.635	-250.507	100.049	-58.0829	-259.528	91.9658	-78.4706	-264.555	86.1248	-99.4581	-224.24	126.587	-23.641	-226.599	133.532	14.0096	-191.795	132.546	-0.539379	
202	1.68333	-161.672	106.021	20.8193	-140.028	100.113	2.44836	-117.548	100.049	-9.7902	-96.6146	98.6926	-12.0271	-162.292	111.533	-68.6541	-155.844	108.379	-97.6701	-158.338	103.588	-122.253	-189.056	119.463	-79.3657	-185.488	113.687	-111.918	-192.422	106.286	-138.225	-214.637	117.096	-76.7816	-216.268	113.663	-101.448	-218.968	106.177	-127.35	-246.79	107.997	-61.1861	-254.53	105.628	-75.2732	-263.441	105.529	-99.5186	-216.803	127.79	-21.7466	-220.082	134.735	13.4701	-186.464	127.926	-3.12187	
203	1.69167	-157.261	101.997	18.4035	-132.753	94.6877	5.13243	-111.134	94.0206	-8.3907	-95.933	91.6031	-14.4672	-159.743	114.78	-68.5715	-151.204	113.626	-92.5328	-152.971	112.435	-121.178	-184.598	124.629	-76.9817	-179.583	123.286	-107.532	-180.318	119.944	-136.928	-212.696	124.572	-74.2356	-209.654	124.408	-105.217	-213.612	122.869	-130.777	-240.627	115.012	-56.7139	-250.135	114.259	-78.3714	-255.732	117.206	-98.6386	-214.91	129.95	-20.5517	-220.428	134.428	16.0818	-179.008	125.035	-0.0558107	
204	1.7	-157.907	98.0763	18.9839	-131.613	90.6268	6.86049	-113.643	87.7381	-6.34	-90.3925	86.377	-14.7089	-150.573	116.509	-68.4645	-150.21	119.679	-94.2021	-147.249	119.681	-121.795	-181.03	130.483	-74.8153	-176.114	132.362	-101.372	-178.132	133.857	-132.912	-203.507	129.622	-71.2267	-203.249	133.608	-101.715	-205.713	134.365	-123.424	-235.963	120.459	-55.5666	-244.525	121.143	-75.6916	-252.61	127.672	-96.5108	-206.37	130.353	-15.8322	-211.249	131.442	17.9474	-176.507	124.612	4.03488	
205	1.70833	-151.121	93.3037	22.0281	-131.084	85.0628	10.9319	-108.628	86.1515	-8.3384	-88.4726	82.1244	-11.8809	-149.329	118.994	-60.4512	-140.887	123.689	-88.5171	-142.602	128.274	-114.586	-171.64	134.555	-69.0329	-170.712	141.026	-96.4229	-168.638	147.085	-127.595	-200.545	137.549	-68.941	-198.253	144.171	-94.9696	-194.145	146.234	-116.046	-229.666	126.824	-57.0884	-238.507	128.422	-72.7427	-240.841	138.459	-92.3873	-201.501	132.43	-11.642	-211.967	130.483	21.5724	-174.293	122.492	7.67845	
206	1.71667	-150.972	90.1554	22.6662	-128.932	83.2586	10.1957	-108.534	84.9023	-7.25466	-84.0697	82.9718	-14.3567	-147.215	125.963	-56.179	-137.093	133.938	-83.4229	-135.926	141.121	-107.326	-165.928	141.421	-63.4113	-165.031	152.068	-89.1539	-159.258	160.6	-116.375	-194.925	143.453	-58.894	-188.916	154.612	-84.4037	-188.615	163.144	-110.255	-224.712	130.572	-48.1146	-231.148	137.642	-68.7701	-234.034	152.953	-89.6789	-197.288	132.662	-6.87402	-208.709	128.441	28.0881	-168.385	119.587	10.1042	
207	1.725	-151.353	86.9894	26.9065	-126.864	81.2572	12.5203	-104.475	86.4286	-4.44932	-84.4441	82.8489	-11.0892	-140.618	133.228	-48.7944	-132.975	143.696	-70.9013	-132.318	154.328	-94.8869	-163.023	150.324	-53.6816	-158.058	163.789	-76.0426	-154.115	179.07	-103.409	-184.772	150.248	-50.2593	-185.242	166.286	-71.6632	-178.492	175.868	-94.6961	-223.226	138.836	-43.8125	-228.017	148.821	-59.8735	-231.081	164.516	-79.3546	-195.52	131.772	-0.341165	-204.577	127.047	30.6281	-168.912	117.72	19.0419	
